<?xml version="1.0" encoding="UTF-8"?><svg id="Layer_2" xmlns="http://www.w3.org/2000/svg" viewBox="0 0 1080 1080"><path d="M809.41,376.24c-19.28,0-34.96,15.68-34.96,34.96s15.68,34.96,34.96,34.96,34.96-15.68,34.96-34.96-15.68-34.96-34.96-34.96ZM809.41,432.46c-11.74,0-21.26-9.52-21.26-21.26s9.52-21.26,21.26-21.26,21.26,9.55,21.26,21.26-9.55,21.26-21.26,21.26Z" fill="#03C5C9"/><path d="M454.55,428.96c.86.86,1.88,1.61,3.05,2.19l1.23.62c-1.4-.96-2.84-1.92-4.28-2.81Z" fill="#03C5C9"/><path d="M575.75,660.07v-8.03l8.29-1.56v-56.67l-8.29-1.56v-8.08h35.08c5.7,0,10.57.88,14.6,2.63,4.03,1.76,7.11,4.27,9.23,7.53,2.12,3.27,3.18,7.21,3.18,11.83s-1.05,8.32-3.15,11.63c-2.1,3.3-5.04,5.87-8.81,7.69-3.77,1.82-8.19,2.77-13.27,2.84l-15.43.16v22l8.29,1.56v8.03h-29.72ZM597.17,618.26h13.08c4.94,0,8.58-1,10.95-3,2.36-2,3.54-4.91,3.54-8.73s-1.15-6.68-3.44-8.89c-2.29-2.21-5.79-3.31-10.48-3.31h-13.66v23.93ZM625.12,660.07l-14.49-34.93,12.3-2.03,12.3,27.58,5.94,1.25v8.13h-16.06Z" fill="#03C5C9"/><path d="M648.63,660.07v-8.03l8.29-1.56v-56.67l-8.29-1.56v-8.08h29.66v8.08l-8.24,1.56v56.67l8.24,1.56v8.03h-29.66Z" fill="#03C5C9"/><path d="M714.68,661.16c-5.18,0-9.99-.64-14.44-1.93-4.45-1.29-8.78-3.42-12.98-6.41v-17.46h10.17l1.67,11.31c1.84,1.32,4.11,2.38,6.8,3.18s5.62,1.2,8.78,1.2,5.69-.44,7.79-1.33c2.1-.89,3.71-2.13,4.82-3.73,1.11-1.6,1.67-3.49,1.67-5.68,0-2.02-.49-3.81-1.46-5.37-.97-1.56-2.59-2.96-4.85-4.2-2.26-1.23-5.32-2.37-9.17-3.41-5.67-1.53-10.4-3.34-14.21-5.42-3.81-2.09-6.67-4.59-8.6-7.51s-2.89-6.36-2.89-10.32,1.1-7.66,3.31-10.79c2.21-3.13,5.27-5.6,9.2-7.4,3.93-1.81,8.46-2.73,13.61-2.76,5.63-.07,10.61.66,14.94,2.19,4.33,1.53,7.98,3.53,10.97,6v16.32h-9.96l-1.88-10.64c-1.42-1.01-3.28-1.87-5.55-2.58-2.28-.71-4.96-1.07-8.05-1.07-2.64,0-4.97.43-6.99,1.3-2.02.87-3.6,2.09-4.74,3.68-1.15,1.58-1.72,3.47-1.72,5.66,0,1.91.5,3.58,1.51,5.01,1.01,1.43,2.69,2.72,5.06,3.88,2.36,1.17,5.56,2.34,9.59,3.52,8.24,2.19,14.48,5.21,18.72,9.07,4.24,3.86,6.36,8.78,6.36,14.75,0,4.2-1.14,7.88-3.42,11.03-2.28,3.15-5.47,5.59-9.59,7.32-4.12,1.74-8.94,2.61-14.47,2.61Z" fill="#03C5C9"/><path d="M749.35,660.07v-8.03l8.29-1.56v-56.67l-8.29-1.56v-8.08h57.81v19.55h-10.22l-.89-9.44h-25.28v21.48h26.64v10.17h-26.64v24.14h26.69l.89-9.64h10.11v19.65h-59.12Z" fill="#03C5C9"/><path d="M575.75,755.51v-8.03l8.29-1.56v-56.67l-8.29-1.56v-8.08h59.01v19.71h-10.22l-.83-9.54h-26.54v23.15h27.06v10.17h-27.06v22.83l8.29,1.56v8.03h-29.72Z" fill="#03C5C9"/><path d="M672.4,756.61c-5.04,0-9.59-.95-13.66-2.84-4.07-1.89-7.55-4.56-10.45-8-2.9-3.44-5.14-7.51-6.7-12.2s-2.35-9.83-2.35-15.43v-1.15c0-5.56.78-10.69,2.35-15.38s3.8-8.77,6.7-12.23c2.9-3.46,6.39-6.13,10.45-8.03,4.07-1.89,8.6-2.84,13.61-2.84s9.82.95,13.92,2.84c4.1,1.89,7.59,4.57,10.48,8.03,2.88,3.46,5.09,7.53,6.62,12.23,1.53,4.69,2.29,9.82,2.29,15.38v1.15c0,5.6-.76,10.74-2.29,15.43-1.53,4.69-3.74,8.76-6.62,12.2-2.89,3.44-6.38,6.11-10.48,8-4.1,1.89-8.72,2.84-13.87,2.84ZM672.4,746.18c4.59,0,8.37-1.17,11.34-3.52s5.18-5.62,6.62-9.83c1.44-4.2,2.16-9.1,2.16-14.7v-1.25c0-5.53-.73-10.38-2.19-14.55-1.46-4.17-3.68-7.44-6.65-9.8-2.97-2.36-6.75-3.54-11.34-3.54s-8.05,1.18-11,3.54c-2.95,2.36-5.18,5.63-6.67,9.8-1.49,4.17-2.24,9.02-2.24,14.55v1.25c0,5.56.75,10.45,2.24,14.68,1.49,4.22,3.73,7.51,6.7,9.85s6.65,3.52,11.03,3.52Z" fill="#03C5C9"/><path d="M712.49,755.51v-8.03l8.29-1.56v-56.67l-8.29-1.56v-8.08h35.08c5.7,0,10.57.88,14.6,2.63,4.03,1.76,7.11,4.27,9.23,7.53,2.12,3.27,3.18,7.21,3.18,11.83s-1.05,8.32-3.15,11.63c-2.1,3.3-5.04,5.86-8.81,7.69-3.77,1.82-8.19,2.77-13.27,2.84l-15.43.16v22l8.29,1.56v8.03h-29.72ZM733.92,713.7h13.08c4.94,0,8.58-1,10.95-3,2.36-2,3.54-4.91,3.54-8.73s-1.15-6.68-3.44-8.89c-2.29-2.21-5.79-3.31-10.48-3.31h-13.66v23.93ZM761.86,755.51l-14.49-34.93,12.3-2.03,12.3,27.58,5.94,1.25v8.13h-16.06Z" fill="#03C5C9"/><path d="M575.75,850.96v-8.03l8.29-1.56v-56.67l-8.29-1.56v-8.08h29.66v8.08l-8.24,1.56v56.67l8.24,1.56v8.03h-29.66Z" fill="#03C5C9"/><path d="M612.34,850.96v-8.03l8.29-1.56v-56.67l-8.29-1.56v-8.08h35.08c5.7,0,10.57.88,14.6,2.63,4.03,1.76,7.11,4.27,9.23,7.53,2.12,3.27,3.18,7.21,3.18,11.83s-1.05,8.32-3.15,11.63c-2.1,3.3-5.04,5.86-8.81,7.69-3.77,1.82-8.19,2.77-13.27,2.84l-15.43.16v22l8.29,1.56v8.03h-29.72ZM633.77,809.15h13.08c4.94,0,8.58-1,10.95-3,2.36-2,3.54-4.91,3.54-8.73s-1.15-6.68-3.44-8.89c-2.29-2.21-5.79-3.31-10.48-3.31h-13.66v23.93ZM661.71,850.96l-14.49-34.93,12.3-2.03,12.3,27.58,5.94,1.25v8.13h-16.06Z" fill="#03C5C9"/><path d="M684.55,850.96v-8.03l5.53-.78,25.13-67.09h12.77l24.82,67.09,5.53.78v8.03h-24.14v-8.03l5.42-.99-4.01-11.94h-28.26l-4.12,11.94,5.47.99v8.03h-24.14ZM710.77,819.94h21.43l-9.85-28.1-.68-2.03h-.31l-.73,2.14-9.85,28Z" fill="#03C5C9"/><path d="M764.57,850.96v-8.03l8.29-1.56v-56.67l-8.29-1.56v-8.08h21.58l34.82,55.42.31-.1v-45.67l-9.59-1.56v-8.08h29.72v8.08l-8.29,1.56v66.26h-12.46l-35.66-55.21-.31.05v45.56l9.59,1.56v8.03h-29.72Z" fill="#03C5C9"/><path d="M465.44,419.69l-.03.03.31.14c-.1-.03-.21-.1-.27-.17Z" fill="#03C5C9"/><path d="M903.13,484.81c-1.37-18.28-7.53-35.81-17.77-51.05,1.81-4.38,3.36-8.9,4.55-13.52,1.68-6.33,2.77-12.98,3.18-19.76l.21-2.74-1.81-2.12c-10.79-12.74-23.01-24.28-36.23-34.41.62-.62,1.2-1.23,1.71-1.99l20.95-31.29c1.75-2.57,2.36-5.68,1.75-8.73-.58-3.01-2.33-5.65-4.9-7.4l-10.79-7.22c-2.43-1.61-5.34-2.23-8.22-1.78,9.11-11.26,8.97-19.38,6.71-24.55-6.85-15.58-35.51-13.59-63.86-5.58l-2.64-1.57c-.89-.55-1.85-.96-2.84-1.23l-12.57-3.39c-1.44-.41-2.91-.44-4.35-.27-1.47-1.27-3.25-2.12-5.27-2.5l-12.77-2.36c-1.13-.21-2.26-.21-3.36-.1-1.61-1.16-3.49-1.95-5.55-2.19l-12.81-1.47c-2.02-.24-3.94.07-5.72.75-1.61-.86-3.39-1.4-5.31-1.44l-12.91-.27c-1.57-.07-3.08.24-4.45.75-1.71-.82-3.66-1.23-5.65-1.13l-13.01.79c-1.51.1-2.91.51-4.18,1.13-1.81-.72-3.83-.96-5.86-.65l-12.84,1.85c-1.51.24-2.88.75-4.14,1.47-1.81-.55-3.83-.65-5.82-.21l-12.67,2.91c-1.47.34-2.81.96-4.01,1.78-1.85-.38-3.83-.31-5.79.27l-12.46,3.94c-1.4.44-2.67,1.2-3.8,2.09-1.92-.24-3.9,0-5.79.79l-11.98,4.86c-1.4.58-2.64,1.44-3.66,2.43-1.95-.1-3.9.31-5.75,1.27l-11.57,5.85c-1.37.69-2.5,1.61-3.46,2.71-1.92.07-3.83.62-5.58,1.68l-11.09,6.81c-1.27.79-2.29,1.85-3.15,2.98-1.92.24-3.8.92-5.44,2.12l-10.44,7.64c-1.27.89-2.26,2.02-3.05,3.29-1.88.38-3.66,1.23-5.2,2.57l-9.86,8.49c-1.13.99-1.99,2.19-2.64,3.46-1.85.55-3.6,1.54-5.03,2.98l-9.07,9.25c-1.06,1.06-1.88,2.36-2.47,3.73-1.78.68-3.42,1.78-4.73,3.36l-8.32,9.96c-.96,1.16-1.64,2.5-2.09,3.87-1.75.82-3.29,2.09-4.45,3.77l-7.4,10.55c-.92,1.23-1.51,2.64-1.81,4.08-1.64.96-3.12,2.33-4.14,4.07l-6.64,11.23c-.75,1.3-1.2,2.7-1.4,4.14-1.58,1.1-2.91,2.6-3.8,4.45l-4.04,8.35c-25.71-15.58-53.65-27.7-82.24-36.94-46.94-14.93-83.31-29.41-109.05-43.35-25.78-13.94-44.13-29.04-55.09-45.3-10.96-16.26-18.63-35.44-22.91-57.49l-6.44-.21-1.44,43.42c-1.03,31.09,3.87,56.87,14.69,77.38,10.79,20.51,29.62,38.28,56.43,53.28,26.81,15.07,64.06,29.72,111.72,44.03,56.12,17.53,99.5,38.62,130.08,63.27.62.45,1.2.92,1.78,1.41,22.56,17.21,39.86,46.45,55.78,69.65,1.68,2.45,3.69,4.09,7.64,3.11,2.57-.64,4.77-5.73,6.08-7.94,17.7-29.69,46.74-51.7,81.8-62.01,14.11-4.11,28.8-6.23,43.69-6.23,3.53,0,6.92.14,10.1.34,1.47.1,2.94.17,4.38.34.1,0,.21,0,.31.03l.82.07c1.68.17,3.32.38,5.1.62,1.68.21,3.36.45,5.1.75,1.64.27,3.29.58,4.93.92,3.01.58,5.96,1.27,8.87,2.05,1.06.27,2.09.55,3.12.89l1.1.27c.14.03.24.07.34.1l.99.38h.34c.65.21,1.27.41,1.92.65l.38.1c1.27.38,2.5.82,3.73,1.27,1.92.69,3.8,1.37,5.89,2.23,1.85.72,3.66,1.51,5.68,2.43.89.38,1.78.79,2.67,1.23l1.06.51c1.13.51,2.19,1.1,3.53,1.78,1.16.58,2.29,1.2,3.42,1.81l7.33-11.54c-26.06-19.17-35.27-34.99-35.06-38.45,3.94-1.57,22.84,2.23,51.05,21.85.27.17.58.34.82.51,27.12,19.11,46.7,46.63,55.23,77.48.24.82.45,1.71.62,2.64l2.36,10.61,8.11-4.76c32.63-19.07,52.93-54.44,52.93-92.31,0-3.01-.14-5.82-.38-8.42ZM858.07,317.1l7.33,4.93-18.66,27.84-7.33-4.9,18.66-27.87ZM827.97,337.44l-4.79-2.67,4.69-8.39c5.38-3.49,10.31-7.05,14.65-10.61l-14.55,21.67ZM757.75,275.19l8.11,1.47-1.13,4.18c-2.94,1.37-5.92,2.77-8.8,4.24l1.81-9.89ZM747.13,309.06l.65-.34c6.64-3.77,13.56-7.22,20.68-10.41l1.78-.82c6.4-2.84,12.98-5.41,19.52-7.7,36.29-12.6,58.14-10.65,60.19-6.03.89,2.05-1.85,9.01-13.15,18.9-4.76,4.21-10.44,8.42-17.09,12.7-.86.58-1.75,1.13-2.74,1.75-6.16,3.87-12.98,7.64-20.24,11.23-17.91-6.54-39.62-11.2-58.72-13.8,2.33-1.47,4.69-2.94,7.19-4.38.62-.38,1.27-.72,1.92-1.1ZM736.89,271.43l7.46.86-4.69,25.23c-.51.31-1.03.62-1.47.86-1.61.96-3.18,1.88-4.73,2.84l3.42-29.79ZM714.26,270.33l8.22.17-3.39,33.45-5.51-.14.68-33.49ZM700.6,270.06l-.72,33.62-5.44.34-2.05-33.45,8.22-.51ZM678.72,271.43l2.05,33.59-5.44.75-4.76-33.18,8.15-1.16ZM657.01,274.58l4.79,33.28-5.34,1.2-7.46-32.66,8.01-1.81ZM635.65,279.44l7.5,32.8-5.24,1.64-10.07-31.95,7.81-2.5ZM614.79,286.08l10.1,32.05-5.07,2.09-12.67-31.06,7.64-3.08ZM594.49,294.37l12.7,31.12-4.9,2.5-15.13-29.93,7.33-3.7ZM574.94,304.3l15.2,29.99-4.69,2.84-17.5-28.56,6.98-4.28ZM556.11,315.87h.27l17.46,28.56-4.42,3.22-19.76-27.05,6.44-4.72ZM538.61,328.68l19.86,27.15-4.14,3.6-21.91-25.37,6.2-5.38ZM522.04,343.02l21.98,25.47-3.83,3.9-2.29-2.29-21.61-21.23,5.75-5.85ZM506.7,358.67l24,23.56-3.53,4.21-25.75-21.47,5.27-6.3ZM492.7,375.52l25.82,21.54-3.15,4.49-27.39-19.28,4.73-6.75ZM480.1,393.46l27.49,19.35-2.77,4.73-28.9-17.02,4.18-7.05ZM469,412.32l28.97,17.05-2.4,4.96-29.86-14.48-.31-.14.03-.03,3.56-7.36ZM499.78,501.04c-.58-.48-1.2-.96-1.81-1.44-31.74-25.51-76.97-47.56-134.56-65.57-46.53-13.97-83.17-28.38-108.95-42.87-24.38-13.63-41.53-29.65-51.02-47.73-8.25-15.61-12.67-35.23-13.18-58.41,1.81,3.22,3.77,6.33,5.79,9.38,12.16,18.04,32.32,34.75,59.95,49.68,26.54,14.35,64.03,29.28,111.35,44.34,32.73,10.58,61.91,24.14,87.21,40.54,1.44.89,2.88,1.85,4.28,2.81.07,0,.1.03.14.07,8.77,5.89,17.05,12.12,24.82,18.73,2.6,2.23,5.72,5.41,9.18,9.96,2.88,3.73,5.99,8.42,9.28,14.24,5.34,9.38,11.2,21.78,17.36,38.14,1.34,3.56,2.64,7.16,3.87,10.68-7.74-8.59-15.82-16.54-23.69-22.56ZM729.46,500.29c-3.15-.86-6.44-1.61-9.72-2.26-1.81-.34-3.63-.72-5.38-.99-1.92-.31-3.83-.62-5.62-.82-1.68-.24-3.42-.44-5.14-.62-.31-.03-.62-.07-.86-.07l-.34-.07c-1.71-.17-3.42-.27-5.1-.38-3.46-.24-7.16-.38-10.99-.38-16.2,0-32.19,2.29-47.52,6.81-34.78,10.18-64.24,31.04-83.95,59.16-1.67,2.38-5.33,1.72-6.09-1.08-7.83-29.09-21.62-72.62-40.22-100.81,33.93-77.38,109.26-129.08,194.31-132.47-10.34,12.87-17.53,27.94-21.02,44.2-1.58,7.29-2.36,14.89-2.36,22.56,0,22.8,7.05,44.55,20.37,62.8,5.07,6.99,10.96,13.35,17.39,18.8.55.44,1.06.89,1.61,1.34-.34,7.19,4.45,15.85,11.81,24.62-.41-.1-.82-.24-1.2-.34ZM789.07,486.32c-18.22-12.36-47.73-27.84-62.38-21.6-.17-.14-.34-.27-.51-.45-5.68-4.79-10.82-10.31-15.27-16.43-11.61-15.92-17.74-34.86-17.74-54.75,0-6.68.68-13.32,2.05-19.69,3.87-17.91,12.87-34.03,26.06-46.94,23.35,1.92,55.71,7.98,78.2,17.67,30.4,13.08,57.9,33.18,79.74,58.24-.48,4.93-1.34,9.76-2.57,14.38-1.34,5.14-3.12,10.13-5.31,14.93-14.69,32.39-46.84,53.62-82.28,54.65ZM851.29,568.73c-8.39-26.98-24.55-51.36-46.39-70.33,30.4-5.34,57.25-23.73,73.2-50.33,6.33,11.37,10.2,23.97,11.33,37.08,0,.24.03.48.03.68,0,.07.03.1.03.14.21,2.26.31,4.66.31,7.26,0,29.96-14.55,58.11-38.52,75.5Z" fill="#03C5C9"/><path d="M553.51,712.37c-7.16-30.2-28.8-111.14-60.84-138.29-35.1-29.69-77.31-50.57-121.11-64.71-46.94-14.93-83.31-29.45-109.05-43.35-25.78-13.94-44.13-29.04-55.09-45.3-10.96-16.26-18.63-35.44-22.91-57.49l-6.44-.2-1.44,43.42c-1.03,31.06,3.87,56.87,14.69,77.35,10.79,20.51,29.62,38.31,56.43,53.31,26.81,15.07,64.06,29.72,111.72,44,56.12,17.56,99.5,38.66,130.08,63.31.62.44,1.2.92,1.78,1.4,22.08,16.85,46.81,51.29,58.28,68.24.48.68,1.13.96,1.78.96,1.27,0,2.5-1.1,2.12-2.64ZM499.82,635.02c-.62-.48-1.23-.99-1.85-1.44-31.74-25.54-76.97-47.59-134.56-65.6-46.53-13.94-83.17-28.35-108.95-42.83-24.38-13.63-41.53-29.69-51.02-47.73-8.25-15.65-12.67-35.23-13.18-58.41,1.81,3.22,3.77,6.33,5.79,9.35,12.16,18.04,32.32,34.79,59.95,49.72,26.54,14.35,64.03,29.28,111.35,44.34,46.19,14.89,85.36,35.81,116.45,62.15,8.25,6.98,21.19,23.45,35.81,62.35,1.34,3.56,2.64,7.12,3.87,10.68-7.74-8.59-15.82-16.54-23.66-22.56Z" fill="#03C5C9"/><path d="M553.51,846.35c-7.16-30.23-28.8-111.14-60.84-138.29-35.1-29.72-77.31-50.57-121.11-64.71-46.94-14.96-83.31-29.45-109.05-43.38-25.78-13.94-44.13-29-55.09-45.3-10.96-16.26-18.63-35.4-22.91-57.45l-6.44-.24-1.44,43.45c-1.03,31.06,3.87,56.84,14.69,77.35,10.79,20.51,29.62,38.31,56.43,53.28,26.81,15.07,64.06,29.72,111.72,44.03,56.12,17.53,99.5,38.62,130.08,63.27.62.45,1.2.92,1.78,1.4,22.08,16.85,46.81,51.33,58.28,68.27.48.65,1.13.96,1.78.96,1.27,0,2.5-1.1,2.12-2.64ZM499.78,768.96c-.58-.48-1.2-.96-1.81-1.44-31.74-25.51-76.97-47.56-134.56-65.57-46.53-13.97-83.17-28.38-108.95-42.87-24.38-13.59-41.53-29.65-51.02-47.73-8.25-15.61-12.67-35.23-13.18-58.41,1.81,3.22,3.77,6.33,5.79,9.38,12.16,18.04,32.32,34.75,59.95,49.68,26.54,14.35,64.03,29.28,111.35,44.34,46.19,14.93,85.36,35.81,116.45,62.14,8.25,6.99,21.19,23.49,35.81,62.38,1.34,3.56,2.64,7.12,3.87,10.68-7.74-8.63-15.82-16.57-23.69-22.6Z" fill="#03C5C9"/></svg>